<?xml version="1.0" encoding="utf-8"?>
<!-- Generator: Adobe Illustrator 22.1.0, SVG Export Plug-In . SVG Version: 6.00 Build 0)  -->
<svg version="1.1" id="Ebene_1" xmlns="http://www.w3.org/2000/svg" xmlns:xlink="http://www.w3.org/1999/xlink" x="0px" y="0px"
	 viewBox="0 0 11 11" style="enable-background:new 0 0 11 11;" xml:space="preserve">
<style type="text/css">
	.st0{fill:#666666;}
	.st1{fill:#FFC857;}
	.st2{fill:#FF64F8;}
	.st3{fill:#FC03FC;}
</style>
<path class="st0" d="M7.2,0H6.8C5.7,0,4.7,0.9,4.7,2.1v0.8c0,0.4,0.2,0.9,0.4,1.3C4.9,4.4,4.6,4.5,4.3,4.6l-0.1,0L4.1,4.7
	C3.9,4.8,3.1,5.4,3,7l0,3h8V7c-0.1-1.6-0.9-2.2-1.1-2.3L9.8,4.6l-0.1,0C9.4,4.5,9.1,4.4,8.8,4.2c0.3-0.4,0.4-0.9,0.4-1.3V2.1
	C9.3,0.9,8.3,0,7.2,0z"/>
<path class="st1" d="M9.4,5.5C8.8,5.4,8.4,5.1,7.9,4.9c0-0.1-0.2-0.4-0.2-0.9c0.3-0.3,0.5-0.7,0.5-1.1V2.1C8.3,1.5,7.8,1,7.2,1H6.8
	C6.2,1,5.7,1.5,5.7,2.1v0.8c0,0.3,0.2,0.8,0.5,1.1c0,0.6-0.1,0.8-0.2,0.9C5.6,5.1,5.2,5.4,4.6,5.5C4.6,5.5,4,5.8,4,7v1h6V7
	C10,5.8,9.4,5.5,9.4,5.5z"/>
<path class="st2" d="M9.4,5.5C8.8,5.4,8.4,5.1,7.9,4.9c0,0.1,0,0.1,0,0.2c-0.4,0.5-1.4,0.4-1.8,0C6,5.1,6.1,5,6.1,4.9
	C5.6,5.1,5.2,5.4,4.6,5.5C4.6,5.5,4,5.8,4,7v2h6V7C10,5.8,9.4,5.5,9.4,5.5z"/>
<g>
	<path class="st0" d="M4.2,2H3.9C2.7,2,1.7,2.9,1.7,4.1v0.8c0,0.4,0.2,0.9,0.4,1.3C1.9,6.4,1.6,6.5,1.3,6.6l-0.1,0L1.1,6.7
		C0.9,6.8,0.1,7.4,0,9l0,2h8V9C7.9,7.4,7.1,6.8,6.9,6.7L6.8,6.6l-0.1,0C6.4,6.5,6.1,6.4,5.8,6.2c0.3-0.4,0.4-0.9,0.4-1.3V4.1
		C6.3,2.9,5.3,2,4.2,2z"/>
	<path class="st1" d="M6.4,7.5C5.8,7.4,5.4,7.1,4.9,6.9c0-0.1-0.2-0.4-0.2-0.9c0.3-0.3,0.5-0.7,0.5-1.1V4.1C5.3,3.5,4.8,3,4.2,3H3.9
		C3.2,3,2.7,3.5,2.7,4.1v0.8c0,0.3,0.2,0.8,0.5,1.1c0,0.6-0.1,0.8-0.2,0.9C2.6,7.1,2.2,7.4,1.6,7.5C1.6,7.5,1,7.8,1,9v1h6V9
		C7,7.8,6.4,7.5,6.4,7.5z"/>
	<path class="st3" d="M6.4,7.5C5.8,7.4,5.4,7.1,4.9,6.9c0,0.1,0,0.1,0,0.2c-0.4,0.5-1.4,0.4-1.8,0C3,7.1,3.1,7,3.1,6.9
		C2.6,7.1,2.2,7.4,1.6,7.5C1.6,7.5,1,7.8,1,9v1h6V9C7,7.8,6.4,7.5,6.4,7.5z"/>
</g>
</svg>
